<svg width="144" height="52" viewBox="0 0 144 52" fill="none" xmlns="http://www.w3.org/2000/svg">
    <path d="M11.5522 50.136L9.87512 18.6382C15.987 36.2322 33.7263 41.1898 41.3661 41.1898L11.5522 50.136Z" fill="white" />
    <path d="M21.2431 18.0792C21.2431 18.6968 20.7425 19.1975 20.1251 19.1975C19.5076 19.1975 19.007 18.6968 19.007 18.0792C19.007 17.4616 19.5076 16.9609 20.1251 16.9609C20.7425 16.9609 21.2431 17.4616 21.2431 18.0792Z" fill="white" />
    <path d="M26.8315 18.079C26.8315 18.4907 26.4978 18.8245 26.0862 18.8245C25.6746 18.8245 25.3409 18.4907 25.3409 18.079C25.3409 17.6672 25.6746 17.3335 26.0862 17.3335C26.4978 17.3335 26.8315 17.6672 26.8315 18.079Z" fill="white" />
    <path fill-rule="evenodd" clip-rule="evenodd" d="M46.2115 28.8892C46.2115 32.5371 45.3666 35.9876 43.8617 39.0555L34.8458 14.7245H9.3177V47.4359C3.66269 43.2232 0 36.484 0 28.8892C0 19.2517 5.89789 10.992 14.2805 7.52402C14.3413 7.182 14.4306 6.72516 14.5599 6.07565C14.8509 4.61325 15.3548 3.22902 16.1943 2.20974C17.0546 1.16527 18.2637 0.514011 19.8673 0.562072C20.1728 0.571226 20.4624 0.599925 20.7368 0.646968C21.3939 0.211849 22.1828 -0.0273165 23.1138 0.00248982C24.6522 0.0517471 25.7641 0.667006 26.5162 1.66111C27.2472 2.62741 27.6039 3.90527 27.7636 5.23939C27.8021 5.56061 27.8294 5.90512 27.8475 6.2655C27.4736 6.18749 27.0964 6.11852 26.7161 6.05884C26.7002 5.81979 26.6796 5.59009 26.6535 5.37233C26.5042 4.12457 26.1833 3.07431 25.6247 2.33589C25.0871 1.62528 24.2972 1.15922 23.078 1.12018C22.796 1.11115 22.5336 1.13422 22.2889 1.18684C22.7639 1.45626 23.1666 1.80542 23.5022 2.2207C24.2832 3.18699 24.6642 4.46485 24.8348 5.79897C24.8367 5.81357 24.8385 5.82808 24.8403 5.84251C25.473 5.88948 26.0986 5.96193 26.7161 6.05884C26.8515 8.09955 26.6377 10.8214 26.4575 12.6113C26.4159 13.0247 26.3761 13.4202 26.3428 13.7911L27.4563 13.8911C27.4874 13.5447 27.5256 13.1673 27.5662 12.7666C27.7388 11.0611 27.9542 8.38798 27.8475 6.2655C38.334 8.45319 46.2115 17.751 46.2115 28.8892ZM23.629 5.78418C23.4617 4.60121 23.1229 3.60456 22.5498 2.89547C22.1689 2.42424 21.6695 2.06055 20.9965 1.85762C20.8411 1.9984 20.6963 2.15743 20.5609 2.33306C19.9297 3.15182 19.5024 4.33782 19.2448 5.72089C19.2208 5.84977 19.1983 5.97988 19.1774 6.11104C18.7859 6.17811 18.3977 6.25503 18.0132 6.34154C18.0512 6.06277 18.0952 5.78713 18.1456 5.51607C18.4156 4.06701 18.8811 2.69469 19.6542 1.67814C18.5665 1.69102 17.7609 2.13893 17.1401 2.89264C16.4657 3.7114 16.0093 4.8974 15.734 6.28047C15.6768 6.56812 15.63 6.81466 15.5919 7.02785C16.3806 6.75671 17.1886 6.52708 18.0132 6.34154C17.6409 9.07601 17.8478 12.111 18.1701 14.0691C18.2925 14.0691 18.4338 14.0343 18.5925 13.9951C18.7925 13.9457 19.0203 13.8895 19.2733 13.8875C18.9471 11.9054 18.7495 8.78969 19.1774 6.11104C20.4541 5.89231 21.7666 5.77837 23.1058 5.77837C23.2806 5.77837 23.4551 5.78031 23.629 5.78418Z" fill="white" />
    <path d="M14.8734 50.4901L41.9889 42.2109C37.8052 48.133 30.907 52 23.1058 52C20.2059 52 17.4307 51.4657 14.8734 50.4901Z" fill="white" />
    <path d="M9.31642 47.3407C6.4841 45.8496 4.1611 42.3706 3.35364 40.8174L9.31642 14.7246V47.3407Z" fill="white" />
    <path d="M59.3706 37.3865H55.9136V19.8755H59.3706V37.3865Z" fill="white" />
    <path d="M74.6266 19.5049V35.1883C74.6266 35.9951 74.6595 36.7278 74.7254 37.3864H71.5894C71.5071 36.9748 71.4659 36.5055 71.4659 35.9786C71.1861 36.489 70.7416 36.9007 70.1325 37.2135C69.5399 37.5264 68.8485 37.6828 68.0583 37.6828C66.3298 37.6828 64.9059 37.0818 63.7864 35.8798C62.6835 34.6614 62.132 33.1301 62.132 31.2859C62.132 29.4912 62.6753 27.9846 63.7618 26.7662C64.8647 25.5477 66.264 24.9385 67.9595 24.9385C69.7045 24.9385 70.8486 25.4407 71.3918 26.4451V19.5049H74.6266ZM65.4409 31.2859C65.4409 32.3562 65.7207 33.2042 66.2804 33.8299C66.8401 34.4391 67.5644 34.7437 68.4534 34.7437C69.3259 34.7437 70.042 34.4309 70.6017 33.8052C71.1614 33.1795 71.4412 32.3315 71.4412 31.2613C71.4412 30.2075 71.1614 29.3842 70.6017 28.7914C70.042 28.1822 69.3259 27.8776 68.4534 27.8776C67.5809 27.8776 66.8566 28.1822 66.2804 28.7914C65.7207 29.4007 65.4409 30.2322 65.4409 31.2859Z" fill="white" />
    <path d="M80.5844 29.9274H86.0168C85.9839 29.2524 85.737 28.6843 85.276 28.2233C84.8316 27.7622 84.1731 27.5317 83.3006 27.5317C82.5105 27.5317 81.8684 27.7787 81.3746 28.2727C80.8807 28.7666 80.6173 29.3182 80.5844 29.9274ZM86.3378 33.0888L89.0787 33.9039C88.7495 35.0235 88.0993 35.9456 87.128 36.6701C86.1732 37.3945 84.9797 37.7568 83.5476 37.7568C81.8026 37.7568 80.321 37.1723 79.1028 36.0032C77.8847 34.8177 77.2756 33.237 77.2756 31.2612C77.2756 29.3841 77.8682 27.8528 79.0535 26.6673C80.2387 25.4653 81.638 24.8643 83.2512 24.8643C85.1279 24.8643 86.593 25.4241 87.6466 26.5438C88.7166 27.6634 89.2516 29.203 89.2516 31.1624C89.2516 31.2941 89.2434 31.4423 89.2269 31.6069C89.2269 31.7716 89.2269 31.9033 89.2269 32.0021L89.2022 32.175H80.5103C80.5433 32.9653 80.856 33.6239 81.4487 34.1508C82.0413 34.6777 82.7491 34.9412 83.5722 34.9412C84.9715 34.9412 85.8934 34.3237 86.3378 33.0888Z" fill="white" />
    <path d="M99.2456 25.1856V28.4951C98.9164 28.4293 98.5872 28.3964 98.2579 28.3964C97.3196 28.3964 96.5623 28.668 95.9862 29.2114C95.41 29.7383 95.1219 30.611 95.1219 31.8294V37.3865H91.8378V25.235H95.0232V27.038C95.6158 25.7701 96.7681 25.1362 98.4801 25.1362C98.6612 25.1362 98.9164 25.1527 99.2456 25.1856Z" fill="white" />
    <path d="M100.887 34.0767C100.887 33.0394 101.225 32.2079 101.9 31.5822C102.575 30.9565 103.447 30.5614 104.517 30.3967L107.505 29.9521C108.114 29.8698 108.419 29.5817 108.419 29.0877C108.419 28.6267 108.238 28.248 107.875 27.9516C107.53 27.6552 107.028 27.507 106.369 27.507C105.678 27.507 105.126 27.6964 104.715 28.0751C104.32 28.4538 104.097 28.9231 104.048 29.4829L101.134 28.8654C101.249 27.8116 101.768 26.8813 102.69 26.0745C103.612 25.2677 104.83 24.8643 106.344 24.8643C108.155 24.8643 109.489 25.3006 110.345 26.1733C111.201 27.0295 111.629 28.1327 111.629 29.4829V35.4598C111.629 36.1843 111.678 36.8265 111.777 37.3863H108.764C108.682 37.0241 108.641 36.5383 108.641 35.9291C107.867 37.1311 106.674 37.7321 105.06 37.7321C103.809 37.7321 102.797 37.3698 102.023 36.6454C101.266 35.9209 100.887 35.0647 100.887 34.0767ZM105.752 35.287C106.526 35.287 107.159 35.0729 107.653 34.6448C108.163 34.2002 108.419 33.4758 108.419 32.4714V31.928L105.678 32.3479C104.674 32.4961 104.171 33.0065 104.171 33.8792C104.171 34.2743 104.311 34.6119 104.591 34.8918C104.871 35.1552 105.258 35.287 105.752 35.287Z" fill="white" />
    <path d="M118.753 25.5087C117.765 26.4218 117.271 27.7241 117.271 29.4155C117.271 31.107 117.765 32.4167 118.753 33.3448C119.741 34.2579 120.901 34.7144 122.232 34.7144C123.579 34.7144 124.747 34.2579 125.734 33.3448C126.722 32.4167 127.216 31.107 127.216 29.4155C127.216 27.7241 126.722 26.4218 125.734 25.5087C124.747 24.5807 123.579 24.1166 122.232 24.1166C120.901 24.1166 119.741 24.5807 118.753 25.5087ZM114.061 29.438C114.061 26.9532 114.862 24.9474 116.463 23.4206C118.065 21.8938 119.988 21.1304 122.232 21.1304C124.492 21.1304 126.423 21.8938 128.024 23.4206C129.625 24.9474 130.426 26.9532 130.426 29.438C130.426 31.9078 129.625 33.9061 128.024 35.4329C126.423 36.9597 124.492 37.7231 122.232 37.7231C119.988 37.7231 118.065 36.9597 116.463 35.4329C114.862 33.9061 114.061 31.9078 114.061 29.438Z" fill="white" />
    <path d="M143.776 25.2617L140.992 26.1149C140.887 25.5461 140.603 25.0297 140.139 24.5657C139.675 24.1017 138.994 23.8696 138.096 23.8696C137.363 23.8696 136.764 24.0717 136.3 24.4759C135.836 24.8651 135.604 25.3366 135.604 25.8904C135.604 26.8634 136.181 27.4621 137.333 27.6866L139.555 28.1132C140.962 28.3827 142.055 28.944 142.833 29.7972C143.611 30.6504 144 31.6533 144 32.8059C144 34.1232 143.476 35.2757 142.429 36.2637C141.396 37.2366 140.004 37.7231 138.253 37.7231C137.251 37.7231 136.345 37.5734 135.537 37.274C134.729 36.9747 134.078 36.578 133.584 36.084C133.09 35.5751 132.701 35.0437 132.417 34.4899C132.147 33.9211 131.983 33.3373 131.923 32.7386L134.796 31.9752C134.871 32.8284 135.2 33.5394 135.784 34.1082C136.383 34.677 137.213 34.9614 138.276 34.9614C139.084 34.9614 139.712 34.7818 140.161 34.4225C140.625 34.0633 140.857 33.5918 140.857 33.008C140.857 32.544 140.685 32.1473 140.341 31.818C140.012 31.4737 139.54 31.2417 138.927 31.1219L136.704 30.6729C135.417 30.4034 134.4 29.8721 133.651 29.0787C132.903 28.2854 132.529 27.2975 132.529 26.1149C132.529 24.7079 133.068 23.5254 134.145 22.5674C135.238 21.6094 136.547 21.1304 138.074 21.1304C138.987 21.1304 139.802 21.2576 140.521 21.5121C141.239 21.7666 141.815 22.1108 142.249 22.5449C142.683 22.964 143.02 23.3981 143.259 23.8472C143.499 24.2963 143.671 24.7678 143.776 25.2617Z" fill="white" />
    <path d="M70.1105 46.0369C70.059 45.9855 70.0181 45.927 69.9877 45.8615C69.9573 45.7937 69.9421 45.7165 69.9421 45.63C69.9421 45.5411 69.9585 45.4628 69.9912 45.3949C70.0263 45.3248 70.0696 45.2686 70.121 45.2265C70.2122 45.1517 70.3081 45.1143 70.4086 45.1143C70.5115 45.1143 70.598 45.1213 70.6682 45.1353C70.7407 45.1493 70.8085 45.1716 70.8716 45.202C71.0166 45.2768 71.0891 45.3844 71.0891 45.5247C71.0891 45.7001 71.0318 45.8533 70.9172 45.9843C70.8096 46.1059 70.6974 46.1726 70.5805 46.1843C70.4659 46.196 70.3724 46.1866 70.2999 46.1562C70.2274 46.1282 70.1643 46.0884 70.1105 46.0369Z" fill="white" />
    <path d="M72.0537 46.0369C72.0023 45.9855 71.9614 45.927 71.931 45.8615C71.9006 45.7937 71.8854 45.7165 71.8854 45.63C71.8854 45.5411 71.9017 45.4628 71.9345 45.3949C71.9696 45.3248 72.0128 45.2686 72.0643 45.2265C72.1555 45.1517 72.2513 45.1143 72.3519 45.1143C72.4548 45.1143 72.5413 45.1213 72.6114 45.1353C72.6839 45.1493 72.7517 45.1716 72.8149 45.202C72.9598 45.2768 73.0323 45.3844 73.0323 45.5247C73.0323 45.7001 72.975 45.8533 72.8605 45.9843C72.7529 46.1059 72.6407 46.1726 72.5238 46.1843C72.4092 46.196 72.3156 46.1866 72.2431 46.1562C72.1707 46.1282 72.1075 46.0884 72.0537 46.0369Z" fill="white" />
    <path d="M73.9969 46.0369C73.9455 45.9855 73.9045 45.927 73.8741 45.8615C73.8437 45.7937 73.8285 45.7165 73.8285 45.63C73.8285 45.5411 73.8449 45.4628 73.8776 45.3949C73.9127 45.3248 73.956 45.2686 74.0074 45.2265C74.0986 45.1517 74.1945 45.1143 74.295 45.1143C74.3979 45.1143 74.4844 45.1213 74.5546 45.1353C74.6271 45.1493 74.6949 45.1716 74.758 45.202C74.903 45.2768 74.9755 45.3844 74.9755 45.5247C74.9755 45.7001 74.9182 45.8533 74.8036 45.9843C74.6961 46.1059 74.5838 46.1726 74.4669 46.1843C74.3523 46.196 74.2588 46.1866 74.1863 46.1562C74.1138 46.1282 74.0507 46.0884 73.9969 46.0369Z" fill="white" />
    <path d="M75.8874 44.928C75.8968 44.7245 75.9307 44.5304 75.9892 44.3456C76.0476 44.1585 76.126 43.9784 76.2242 43.8054C76.3224 43.63 76.437 43.4651 76.5679 43.3107C76.7012 43.154 76.845 43.0172 76.9993 42.9002C77.3337 42.65 77.6716 42.5249 78.013 42.5249C78.4128 42.5249 78.6794 42.6897 78.8127 43.0195C78.8595 43.1318 78.8817 43.2651 78.8793 43.4195C78.877 43.5715 78.8478 43.713 78.7917 43.844C78.7355 43.9726 78.6572 44.0907 78.5567 44.1983C78.4584 44.3035 78.3404 44.3983 78.2024 44.4825C78.0668 44.5667 77.9183 44.638 77.7569 44.6965C77.4249 44.8134 77.0695 44.8742 76.6907 44.8789C76.6813 44.9116 76.6755 44.9608 76.6731 45.0263C76.6708 45.0917 76.6778 45.1654 76.6942 45.2473C76.7105 45.3268 76.7386 45.3981 76.7784 45.4613C76.8625 45.6016 76.9841 45.6718 77.1431 45.6718C77.4144 45.6718 77.6786 45.5923 77.9358 45.4332C78.027 45.3794 78.1007 45.3245 78.1568 45.2683C78.2153 45.2099 78.2655 45.1806 78.3076 45.1806C78.3497 45.1806 78.386 45.2063 78.4164 45.2578C78.4491 45.3069 78.4655 45.363 78.4655 45.4262C78.4655 45.5502 78.4304 45.6577 78.3602 45.749C78.0656 46.0437 77.6272 46.191 77.0449 46.191C76.7012 46.191 76.4253 46.0881 76.2171 45.8823C75.9833 45.6484 75.8734 45.3303 75.8874 44.928ZM77.9358 42.9915C77.6903 42.9915 77.4541 43.1599 77.2273 43.4966C77.0356 43.7867 76.8812 44.1305 76.7643 44.5281C77.1548 44.4883 77.4939 44.334 77.7815 44.065C78.0457 43.8124 78.1778 43.5703 78.1778 43.3388C78.1778 43.1072 78.0972 42.9915 77.9358 42.9915Z" fill="white" />
    <path d="M79.2266 44.9456C79.2313 44.7421 79.2628 44.5398 79.3213 44.3386C79.3821 44.1352 79.4616 43.9434 79.5598 43.7633C79.6603 43.5832 79.7784 43.4171 79.9141 43.2651C80.052 43.1131 80.2017 42.9821 80.363 42.8722C80.6997 42.6406 81.054 42.5249 81.4258 42.5249C81.8093 42.5249 82.07 42.6781 82.208 42.9844C82.2571 43.0944 82.2793 43.2195 82.2746 43.3598C82.2723 43.4978 82.2501 43.6253 82.208 43.7422C82.1659 43.8568 82.1133 43.9597 82.0501 44.051C81.9075 44.2568 81.7637 44.3597 81.6187 44.3597C81.4574 44.3597 81.3381 44.3152 81.2609 44.2264C81.1931 44.1492 81.1721 44.0591 81.1978 43.9562C81.2048 43.9258 81.2259 43.8989 81.2609 43.8755C81.296 43.8498 81.3404 43.8101 81.3942 43.7563C81.5462 43.5972 81.6257 43.4113 81.6327 43.1984C81.6374 43.0534 81.5486 42.9809 81.3662 42.9809C81.1697 42.9809 80.964 43.0909 80.7488 43.3107C80.4355 43.6311 80.2145 44.0416 80.0859 44.5421C79.9737 44.9771 79.9947 45.2952 80.1491 45.4964C80.2403 45.6133 80.3642 45.6718 80.5209 45.6718C80.7851 45.6718 81.04 45.5782 81.2855 45.3911C81.3603 45.3326 81.4211 45.273 81.4679 45.2122C81.5146 45.1514 81.5579 45.121 81.5977 45.121C81.6374 45.121 81.6702 45.1409 81.6959 45.1806C81.7239 45.218 81.738 45.2672 81.738 45.328C81.738 45.466 81.676 45.6016 81.5521 45.7349C81.234 46.039 80.8517 46.191 80.4051 46.191C80.024 46.191 79.7293 46.0822 79.5212 45.8647C79.3154 45.6496 79.2172 45.3432 79.2266 44.9456Z" fill="white" />
    <path d="M82.913 45.9174C82.8148 45.8238 82.7376 45.7057 82.6815 45.563C82.6254 45.418 82.5961 45.2473 82.5938 45.0508C82.5915 44.8543 82.6148 44.6555 82.6639 44.4544C82.7154 44.2533 82.7867 44.0591 82.8779 43.872C82.9714 43.6849 83.0825 43.5095 83.2111 43.3458C83.3421 43.1821 83.4859 43.0394 83.6425 42.9178C83.9839 42.6558 84.3382 42.5249 84.7053 42.5249C85.187 42.5249 85.5132 42.7365 85.6839 43.1599C85.8055 43.4662 85.8125 43.837 85.7049 44.272C85.6067 44.6719 85.4267 45.0391 85.1648 45.3736C84.9052 45.708 84.5989 45.9454 84.2458 46.0858C84.0681 46.1559 83.8927 46.191 83.7197 46.191C83.549 46.191 83.3958 46.1688 83.2602 46.1243C83.1269 46.0799 83.0112 46.0109 82.913 45.9174ZM83.5829 44.2158C83.5128 44.3889 83.4566 44.5667 83.4145 44.7491C83.3748 44.9315 83.3561 45.1046 83.3584 45.2683C83.3608 45.4297 83.3853 45.5572 83.4321 45.6507C83.4812 45.7419 83.5595 45.7876 83.6671 45.7876C83.7747 45.7876 83.8799 45.7513 83.9828 45.6788C84.088 45.6039 84.1897 45.5057 84.2879 45.3841C84.3861 45.2625 84.4785 45.1221 84.565 44.9631C84.6515 44.8041 84.7275 44.638 84.793 44.4649C84.9356 44.0884 85.0046 43.7539 84.9999 43.4616C84.9999 43.2043 84.9473 43.0406 84.8421 42.9704C84.8 42.9423 84.7404 42.9283 84.6632 42.9283C84.5884 42.9283 84.5019 42.9634 84.4037 43.0336C84.3055 43.1014 84.2072 43.1938 84.109 43.3107C84.0108 43.4277 83.9161 43.5645 83.8249 43.7212C83.7337 43.8779 83.6531 44.0428 83.5829 44.2158Z" fill="white" />
    <path d="M88.9283 43.1879C88.7927 43.1879 88.5449 43.3844 88.1848 43.7773C87.9158 44.0837 87.7206 44.3141 87.599 44.4684L87.2833 44.8684C87.1477 45.1257 87.0413 45.3397 86.9641 45.5104L86.7747 45.9174C86.7256 46.0179 86.6824 46.0893 86.645 46.1314C86.6099 46.1711 86.5608 46.191 86.4976 46.191C86.4368 46.191 86.3772 46.1793 86.3188 46.1559C86.2626 46.1349 86.2135 46.1068 86.1714 46.0717C86.0826 45.9969 86.0382 45.915 86.0382 45.8261C86.0382 45.7911 86.0639 45.7221 86.1153 45.6192L86.2486 45.335C86.2907 45.2508 86.3398 45.1432 86.3959 45.0122L86.5923 44.5316C86.8683 43.8416 87.0062 43.3961 87.0062 43.1949C87.0062 43.0874 86.9712 43.0078 86.901 42.9564L86.8309 42.9073C86.8075 42.8909 86.7958 42.8628 86.7958 42.8231C86.7958 42.781 86.811 42.7412 86.8414 42.7038C86.8741 42.6664 86.9162 42.6336 86.9676 42.6055C87.0729 42.5518 87.1781 42.5249 87.2833 42.5249C87.3909 42.5249 87.4751 42.5366 87.5359 42.5599C87.5967 42.5833 87.6493 42.6149 87.6937 42.6547C87.7826 42.7365 87.827 42.8219 87.827 42.9108C87.827 42.9996 87.8153 43.0897 87.7919 43.1809C87.7685 43.2698 87.7393 43.361 87.7042 43.4546C87.6692 43.5458 87.6317 43.6346 87.592 43.7212C87.4985 43.9223 87.44 44.0463 87.4166 44.0931C87.3956 44.1375 87.3897 44.1539 87.3991 44.1422C87.827 43.5879 88.0842 43.2604 88.1707 43.1599C88.3508 42.9517 88.4911 42.809 88.5916 42.7318C88.7764 42.5939 88.9506 42.5249 89.1142 42.5249C89.2803 42.5249 89.4124 42.5763 89.5106 42.6792C89.6088 42.7821 89.6579 42.9178 89.6579 43.0862C89.6579 43.2335 89.6205 43.4066 89.5457 43.6054C89.4708 43.8042 89.4206 43.9434 89.3948 44.0229L89.9104 43.3423L90.1981 42.9985C90.3711 42.8044 90.5231 42.6769 90.654 42.6161C90.785 42.5553 90.8914 42.5249 90.9732 42.5249C91.0574 42.5249 91.1392 42.5401 91.2187 42.5705C91.3006 42.6009 91.3696 42.6441 91.4257 42.7003C91.5449 42.8149 91.6046 42.9669 91.6046 43.1563C91.6046 43.3388 91.5625 43.5259 91.4783 43.7177C91.3941 43.9095 91.3205 44.0673 91.2573 44.1913C91.1942 44.3129 91.1334 44.4357 91.0749 44.5597C90.9042 44.9315 90.8189 45.2075 90.8189 45.3876C90.8189 45.5139 90.8703 45.5771 90.9732 45.5771C91.0714 45.5771 91.1603 45.556 91.2398 45.5139C91.3216 45.4718 91.3742 45.4508 91.3976 45.4508C91.4467 45.4508 91.4713 45.4753 91.4713 45.5244C91.4713 45.7326 91.3649 45.9068 91.1521 46.0472C91.0095 46.1431 90.8785 46.191 90.7593 46.191C90.6423 46.191 90.5476 46.177 90.4752 46.1489C90.4027 46.1208 90.3372 46.0764 90.2787 46.0156C90.1478 45.8799 90.0823 45.7104 90.0823 45.5069C90.0823 45.3034 90.108 45.1163 90.1595 44.9456C90.2109 44.7748 90.2717 44.6099 90.3419 44.4509C90.412 44.2895 90.4822 44.1422 90.5523 44.0089C90.6248 43.8732 90.6798 43.7656 90.7172 43.6861C90.792 43.5224 90.8294 43.4019 90.8294 43.3247C90.8294 43.2335 90.7815 43.1879 90.6856 43.1879C90.5593 43.1879 90.3325 43.3972 90.0051 43.8159C89.7573 44.141 89.5854 44.3749 89.4895 44.5176L89.2475 44.8684C89.1119 45.1257 89.0078 45.3397 88.9354 45.5104L88.7565 45.9174C88.712 46.0179 88.6735 46.0893 88.6407 46.1314C88.608 46.1711 88.5624 46.191 88.5039 46.191C88.4455 46.191 88.3882 46.1816 88.3321 46.1629C88.2783 46.1442 88.2315 46.1197 88.1918 46.0893C88.1006 46.0214 88.055 45.9501 88.055 45.8753C88.055 45.7981 88.0795 45.694 88.1286 45.563C88.1801 45.4297 88.2432 45.2812 88.318 45.1175L88.8091 44.079C88.9845 43.6931 89.0722 43.4487 89.0722 43.3458C89.0722 43.2405 89.0242 43.1879 88.9283 43.1879ZM89.2756 44.1773C89.2779 44.1773 89.2791 44.1761 89.2791 44.1737L89.2826 44.1667C89.2779 44.1714 89.2756 44.1749 89.2756 44.1773Z" fill="white" />
    <path d="M94.7859 43.1879C94.6502 43.1879 94.4025 43.3844 94.0424 43.7773C93.7735 44.0837 93.5782 44.3141 93.4566 44.4684L93.141 44.8684C93.0053 45.1257 92.8989 45.3397 92.8218 45.5104L92.6324 45.9174C92.5833 46.0179 92.54 46.0893 92.5026 46.1314C92.4675 46.1711 92.4184 46.191 92.3553 46.191C92.2945 46.191 92.2348 46.1793 92.1764 46.1559C92.1203 46.1349 92.0712 46.1068 92.0291 46.0717C91.9402 45.9969 91.8958 45.915 91.8958 45.8261C91.8958 45.7911 91.9215 45.7221 91.973 45.6192L92.1062 45.335C92.1483 45.2508 92.1974 45.1432 92.2536 45.0122L92.45 44.5316C92.7259 43.8416 92.8639 43.3961 92.8639 43.1949C92.8639 43.0874 92.8288 43.0078 92.7586 42.9564L92.6885 42.9073C92.6651 42.8909 92.6534 42.8628 92.6534 42.8231C92.6534 42.781 92.6686 42.7412 92.699 42.7038C92.7317 42.6664 92.7738 42.6336 92.8253 42.6055C92.9305 42.5518 93.0357 42.5249 93.141 42.5249C93.2485 42.5249 93.3327 42.5366 93.3935 42.5599C93.4543 42.5833 93.5069 42.6149 93.5513 42.6547C93.6402 42.7365 93.6846 42.8219 93.6846 42.9108C93.6846 42.9996 93.6729 43.0897 93.6495 43.1809C93.6262 43.2698 93.5969 43.361 93.5619 43.4546C93.5268 43.5458 93.4894 43.6346 93.4496 43.7212C93.3561 43.9223 93.2976 44.0463 93.2742 44.0931C93.2532 44.1375 93.2473 44.1539 93.2567 44.1422C93.6846 43.5879 93.9418 43.2604 94.0284 43.1599C94.2084 42.9517 94.3487 42.809 94.4493 42.7318C94.634 42.5939 94.8082 42.5249 94.9719 42.5249C95.1379 42.5249 95.27 42.5763 95.3682 42.6792C95.4664 42.7821 95.5155 42.9178 95.5155 43.0862C95.5155 43.2335 95.4781 43.4066 95.4033 43.6054C95.3285 43.8042 95.2782 43.9434 95.2525 44.0229L95.7681 43.3423L96.0557 42.9985C96.2287 42.8044 96.3807 42.6769 96.5117 42.6161C96.6426 42.5553 96.749 42.5249 96.8308 42.5249C96.915 42.5249 96.9969 42.5401 97.0764 42.5705C97.1582 42.6009 97.2272 42.6441 97.2833 42.7003C97.4026 42.8149 97.4622 42.9669 97.4622 43.1563C97.4622 43.3388 97.4201 43.5259 97.3359 43.7177C97.2517 43.9095 97.1781 44.0673 97.115 44.1913C97.0518 44.3129 96.991 44.4357 96.9326 44.5597C96.7619 44.9315 96.6765 45.2075 96.6765 45.3876C96.6765 45.5139 96.728 45.5771 96.8308 45.5771C96.9291 45.5771 97.0179 45.556 97.0974 45.5139C97.1793 45.4718 97.2319 45.4508 97.2553 45.4508C97.3044 45.4508 97.3288 45.4753 97.3288 45.5244C97.3288 45.7326 97.2225 45.9068 97.0097 46.0472C96.8671 46.1431 96.7361 46.191 96.6169 46.191C96.5 46.191 96.4053 46.177 96.3328 46.1489C96.2603 46.1208 96.1948 46.0764 96.1364 46.0156C96.0054 45.8799 95.9398 45.7104 95.9398 45.5069C95.9398 45.3034 95.9657 45.1163 96.0171 44.9456C96.0686 44.7748 96.1293 44.6099 96.1995 44.4509C96.2696 44.2895 96.3398 44.1422 96.4099 44.0089C96.4824 43.8732 96.5374 43.7656 96.5748 43.6861C96.6496 43.5224 96.687 43.4019 96.687 43.3247C96.687 43.2335 96.6391 43.1879 96.5432 43.1879C96.417 43.1879 96.1901 43.3972 95.8628 43.8159C95.6149 44.141 95.443 44.3749 95.3472 44.5176L95.1052 44.8684C94.9695 45.1257 94.8655 45.3397 94.793 45.5104L94.6141 45.9174C94.5697 46.0179 94.5311 46.0893 94.4984 46.1314C94.4656 46.1711 94.42 46.191 94.3616 46.191C94.3031 46.191 94.2458 46.1816 94.1897 46.1629C94.1359 46.1442 94.0892 46.1197 94.0494 46.0893C93.9582 46.0214 93.9126 45.9501 93.9126 45.8753C93.9126 45.7981 93.9372 45.694 93.9863 45.563C94.0377 45.4297 94.1008 45.2812 94.1757 45.1175L94.6667 44.079C94.8421 43.6931 94.9298 43.4487 94.9298 43.3458C94.9298 43.2405 94.8817 43.1879 94.7859 43.1879ZM95.1332 44.1773C95.1356 44.1773 95.1367 44.1761 95.1367 44.1737L95.1402 44.1667C95.1356 44.1714 95.1332 44.1749 95.1332 44.1773Z" fill="white" />
    <path d="M98.0338 44.928C98.0432 44.7245 98.0771 44.5304 98.1355 44.3456C98.194 44.1585 98.2723 43.9784 98.3705 43.8054C98.4688 43.63 98.5833 43.4651 98.7143 43.3107C98.8476 43.154 98.9914 43.0172 99.1457 42.9002C99.4801 42.65 99.818 42.5249 100.159 42.5249C100.559 42.5249 100.826 42.6897 100.959 43.0195C101.006 43.1318 101.028 43.2651 101.026 43.4195C101.023 43.5715 100.994 43.713 100.938 43.844C100.882 43.9726 100.804 44.0907 100.703 44.1983C100.605 44.3035 100.487 44.3983 100.349 44.4825C100.213 44.5667 100.065 44.638 99.9033 44.6965C99.5713 44.8134 99.2159 44.8742 98.837 44.8789C98.8277 44.9116 98.8218 44.9608 98.8195 45.0263C98.8172 45.0917 98.8242 45.1654 98.8405 45.2473C98.8569 45.3268 98.885 45.3981 98.9247 45.4613C99.0089 45.6016 99.1305 45.6718 99.2895 45.6718C99.5608 45.6718 99.825 45.5923 100.082 45.4332C100.173 45.3794 100.247 45.3245 100.303 45.2683C100.362 45.2099 100.412 45.1806 100.454 45.1806C100.496 45.1806 100.532 45.2063 100.563 45.2578C100.595 45.3069 100.612 45.363 100.612 45.4262C100.612 45.5502 100.577 45.6577 100.507 45.749C100.212 46.0437 99.7735 46.191 99.1913 46.191C98.8476 46.191 98.5716 46.0881 98.3635 45.8823C98.1297 45.6484 98.0198 45.3303 98.0338 44.928ZM100.082 42.9915C99.8367 42.9915 99.6005 43.1599 99.3737 43.4966C99.1819 43.7867 99.0276 44.1305 98.9107 44.5281C99.3012 44.4883 99.6403 44.334 99.9279 44.065C100.192 43.8124 100.324 43.5703 100.324 43.3388C100.324 43.1072 100.244 42.9915 100.082 42.9915Z" fill="white" />
    <path d="M101.401 46.0717C101.354 46.0366 101.317 45.998 101.289 45.9559C101.261 45.9115 101.246 45.8741 101.243 45.8437C101.241 45.8109 101.247 45.7723 101.261 45.7279C101.277 45.6811 101.298 45.625 101.324 45.5595C101.801 44.3854 102.039 43.5972 102.039 43.1949C102.032 43.0827 101.994 43.0032 101.924 42.9564L101.853 42.9073C101.832 42.8909 101.821 42.8628 101.818 42.8231C101.818 42.781 101.834 42.7412 101.864 42.7038C101.894 42.6664 101.934 42.6336 101.983 42.6055C102.084 42.5518 102.187 42.5249 102.292 42.5249C102.399 42.5249 102.483 42.5366 102.541 42.5599C102.602 42.5833 102.653 42.6149 102.695 42.6547C102.784 42.7389 102.829 42.8277 102.829 42.9213C102.831 43.0148 102.82 43.1096 102.797 43.2055C102.776 43.3014 102.75 43.3961 102.72 43.4896C102.689 43.5808 102.659 43.6686 102.629 43.7528C102.598 43.8346 102.578 43.8954 102.569 43.9352C102.55 44.017 102.543 44.0685 102.548 44.0895C102.604 44.0404 102.638 43.9925 102.65 43.9457L102.786 43.6861C103.09 43.1388 103.387 42.7763 103.677 42.5985C103.762 42.5494 103.862 42.5249 103.979 42.5249C104.098 42.5249 104.194 42.567 104.267 42.6512C104.339 42.733 104.377 42.8242 104.379 42.9248C104.384 43.0254 104.377 43.1096 104.358 43.1774C104.341 43.2429 104.316 43.3049 104.281 43.3633C104.204 43.4943 104.11 43.5598 104 43.5598C103.97 43.5598 103.942 43.5493 103.916 43.5282L103.839 43.4616C103.762 43.3937 103.687 43.3598 103.614 43.3598C103.544 43.3598 103.458 43.4066 103.355 43.5002C103.254 43.5937 103.149 43.7142 103.039 43.8615C102.67 44.3503 102.368 44.8976 102.134 45.5034L101.98 45.9103C101.94 46.0109 101.905 46.0834 101.875 46.1279C101.844 46.17 101.799 46.191 101.738 46.191C101.679 46.191 101.62 46.1793 101.559 46.1559C101.5 46.1349 101.448 46.1068 101.401 46.0717Z" fill="white" />
    <path d="M104.305 44.9456C104.31 44.7421 104.341 44.5398 104.4 44.3386C104.461 44.1352 104.54 43.9434 104.638 43.7633C104.739 43.5832 104.857 43.4171 104.993 43.2651C105.131 43.1131 105.28 42.9821 105.442 42.8722C105.778 42.6406 106.133 42.5249 106.504 42.5249C106.888 42.5249 107.149 42.6781 107.287 42.9844C107.336 43.0944 107.358 43.2195 107.353 43.3598C107.351 43.4978 107.329 43.6253 107.287 43.7422C107.245 43.8568 107.192 43.9597 107.129 44.051C106.986 44.2568 106.842 44.3597 106.697 44.3597C106.536 44.3597 106.417 44.3152 106.34 44.2264C106.272 44.1492 106.251 44.0591 106.276 43.9562C106.283 43.9258 106.305 43.8989 106.34 43.8755C106.375 43.8498 106.419 43.8101 106.473 43.7563C106.625 43.5972 106.704 43.4113 106.711 43.1984C106.716 43.0534 106.627 42.9809 106.445 42.9809C106.248 42.9809 106.043 43.0909 105.827 43.3107C105.514 43.6311 105.293 44.0416 105.165 44.5421C105.052 44.9771 105.073 45.2952 105.228 45.4964C105.319 45.6133 105.443 45.6718 105.6 45.6718C105.864 45.6718 106.119 45.5782 106.364 45.3911C106.439 45.3326 106.5 45.273 106.547 45.2122C106.593 45.1514 106.637 45.121 106.676 45.121C106.716 45.121 106.749 45.1409 106.775 45.1806C106.803 45.218 106.817 45.2672 106.817 45.328C106.817 45.466 106.755 45.6016 106.631 45.7349C106.313 46.039 105.93 46.191 105.484 46.191C105.103 46.191 104.808 46.0822 104.6 45.8647C104.394 45.6496 104.296 45.3432 104.305 44.9456Z" fill="white" />
    <path d="M107.701 44.928C107.71 44.7245 107.744 44.5304 107.802 44.3456C107.861 44.1585 107.939 43.9784 108.037 43.8054C108.135 43.63 108.25 43.4651 108.381 43.3107C108.514 43.154 108.658 43.0172 108.812 42.9002C109.147 42.65 109.485 42.5249 109.826 42.5249C110.226 42.5249 110.492 42.6897 110.626 43.0195C110.673 43.1318 110.695 43.2651 110.692 43.4195C110.69 43.5715 110.661 43.713 110.605 43.844C110.549 43.9726 110.47 44.0907 110.37 44.1983C110.271 44.3035 110.153 44.3983 110.015 44.4825C109.88 44.5667 109.731 44.638 109.57 44.6965C109.238 44.8134 108.883 44.8742 108.504 44.8789C108.494 44.9116 108.489 44.9608 108.486 45.0263C108.484 45.0917 108.491 45.1654 108.507 45.2473C108.524 45.3268 108.552 45.3981 108.591 45.4613C108.676 45.6016 108.797 45.6718 108.956 45.6718C109.227 45.6718 109.492 45.5923 109.749 45.4332C109.84 45.3794 109.914 45.3245 109.97 45.2683C110.028 45.2099 110.079 45.1806 110.121 45.1806C110.163 45.1806 110.199 45.2063 110.229 45.2578C110.262 45.3069 110.279 45.363 110.279 45.4262C110.279 45.5502 110.243 45.6577 110.173 45.749C109.879 46.0437 109.44 46.191 108.858 46.191C108.514 46.191 108.238 46.0881 108.03 45.8823C107.796 45.6484 107.686 45.3303 107.701 44.928ZM109.749 42.9915C109.503 42.9915 109.267 43.1599 109.04 43.4966C108.849 43.7867 108.694 44.1305 108.577 44.5281C108.968 44.4883 109.307 44.334 109.595 44.065C109.859 43.8124 109.991 43.5703 109.991 43.3388C109.991 43.1072 109.91 42.9915 109.749 42.9915Z" fill="white" />
    <path d="M114.424 45.756C114.106 46.0366 113.856 46.177 113.674 46.177C113.494 46.177 113.369 46.0834 113.298 45.8963C113.273 45.8308 113.26 45.77 113.26 45.7139C113.26 45.5618 113.283 45.4145 113.33 45.2718C113.379 45.1292 113.427 44.9958 113.474 44.8719L113.783 44.0755C113.902 43.7504 113.974 43.5235 114 43.3949C114.026 43.2663 114.022 43.1797 113.989 43.1353C113.957 43.0885 113.918 43.0488 113.874 43.016C113.832 42.9809 113.791 42.9505 113.751 42.9248C113.714 42.8967 113.695 42.8628 113.695 42.8231C113.695 42.781 113.711 42.7412 113.744 42.7038C113.779 42.6664 113.825 42.6336 113.881 42.6055C113.993 42.5518 114.109 42.5249 114.228 42.5249C114.35 42.5249 114.444 42.5377 114.512 42.5634C114.582 42.5868 114.64 42.6172 114.684 42.6547C114.77 42.7318 114.814 42.8254 114.814 42.9353C114.814 43.0429 114.795 43.1645 114.758 43.3002C114.723 43.4358 114.677 43.5797 114.621 43.7317C114.567 43.8837 114.506 44.0416 114.438 44.2053L114.245 44.6895C114.094 45.08 114.001 45.3724 113.968 45.5665C114.188 45.4917 114.479 45.2227 114.842 44.7596C115.237 44.2521 115.587 43.6732 115.891 43.023C115.926 42.9412 115.969 42.8885 116.02 42.8652C116.104 42.8254 116.211 42.8079 116.339 42.8125C116.543 42.8196 116.648 42.8827 116.655 43.002C116.66 43.0745 116.64 43.1552 116.596 43.2441C116.553 43.3306 116.518 43.4031 116.49 43.4616L116.354 43.7422C116.08 44.2965 115.943 44.7468 115.943 45.0929C115.943 45.3338 116.009 45.4987 116.14 45.5876C116.177 45.6156 116.234 45.6297 116.311 45.6297C116.389 45.6297 116.48 45.6028 116.585 45.549C116.69 45.4929 116.791 45.4168 116.887 45.3209C116.983 45.2251 117.071 45.114 117.153 44.9877C117.237 44.859 117.31 44.7222 117.371 44.5772C117.499 44.2708 117.564 43.9995 117.564 43.7633C117.564 43.3587 117.488 43.0605 117.336 42.8687C117.284 42.8079 117.299 42.7365 117.381 42.6547C117.468 42.5681 117.603 42.5249 117.788 42.5249C118.015 42.5249 118.169 42.6523 118.251 42.9073C118.284 43.0032 118.3 43.147 118.3 43.3388C118.3 43.5306 118.266 43.7446 118.198 43.9808C118.131 44.2147 118.038 44.4404 117.921 44.6579C117.807 44.8731 117.673 45.0742 117.521 45.2613C117.372 45.4484 117.214 45.611 117.048 45.749C116.693 46.0437 116.363 46.191 116.059 46.191C115.537 46.191 115.277 45.8542 115.277 45.1806C115.277 45.0263 115.291 44.8754 115.319 44.7281C115.043 45.1303 114.745 45.473 114.424 45.756Z" fill="white" />
    <path d="M120.552 41.7039C120.501 41.7577 120.442 41.8022 120.377 41.8372C120.311 41.87 120.242 41.891 120.17 41.9004C120.097 41.9074 120.028 41.8957 119.963 41.8653C119.9 41.8349 119.845 41.7916 119.798 41.7355C119.697 41.6186 119.647 41.5004 119.647 41.3812C119.647 41.2619 119.666 41.173 119.703 41.1145C119.743 41.0537 119.792 41.0046 119.85 40.9672C119.963 40.8947 120.068 40.8584 120.166 40.8584C120.267 40.8584 120.344 40.8654 120.398 40.8795C120.454 40.8935 120.505 40.9169 120.552 40.9496C120.667 41.0268 120.724 41.1215 120.724 41.2338C120.724 41.3437 120.707 41.4361 120.675 41.511C120.644 41.5835 120.603 41.6478 120.552 41.7039ZM119.833 45.4999C119.894 45.4999 119.924 45.5396 119.924 45.6192C119.924 45.7244 119.876 45.8332 119.78 45.9454C119.64 46.1091 119.452 46.191 119.216 46.191C118.944 46.191 118.758 46.0811 118.658 45.8612C118.621 45.784 118.602 45.6905 118.602 45.5806C118.602 45.4706 118.621 45.349 118.658 45.2157C118.698 45.08 118.746 44.9385 118.802 44.7912C118.86 44.6415 118.923 44.4907 118.991 44.3386L119.177 43.8966C119.313 43.5668 119.38 43.3493 119.38 43.2441C119.38 43.1388 119.369 43.0698 119.345 43.0371C119.324 43.002 119.301 42.9751 119.275 42.9564L119.205 42.9073C119.182 42.8909 119.17 42.8628 119.17 42.8231C119.17 42.781 119.185 42.7412 119.216 42.7038C119.248 42.6664 119.29 42.6336 119.342 42.6055C119.447 42.5518 119.57 42.5249 119.71 42.5249C120.054 42.5249 120.226 42.6149 120.226 42.795C120.226 43.0055 120.171 43.2464 120.061 43.5177C119.951 43.7867 119.857 44.0042 119.78 44.1702L119.57 44.6544C119.416 45.0099 119.338 45.266 119.338 45.4227C119.338 45.5256 119.39 45.5771 119.493 45.5771C119.593 45.5771 119.669 45.5642 119.721 45.5385C119.772 45.5127 119.81 45.4999 119.833 45.4999Z" fill="white" />
    <path d="M122.755 45.2371C122.823 45.2371 122.856 45.2828 122.856 45.374C122.856 45.4512 122.833 45.526 122.786 45.5985C122.723 45.7342 122.597 45.8628 122.407 45.9844C122.192 46.1224 121.976 46.1914 121.759 46.1914C121.382 46.1914 121.144 46.023 121.043 45.6862C120.924 45.2863 121.103 44.4384 121.58 43.1427C121.311 43.1193 121.165 43.0725 121.141 43.0024C121.134 42.9813 121.131 42.9591 121.131 42.9357C121.131 42.91 121.141 42.8808 121.162 42.848C121.186 42.8153 121.215 42.7837 121.25 42.7533C121.332 42.6855 121.415 42.6516 121.499 42.6516H121.776C122.029 42.0598 122.209 41.723 122.316 41.6412C122.368 41.6038 122.425 41.585 122.488 41.585C122.551 41.585 122.604 41.5932 122.646 41.6096C122.688 41.626 122.725 41.6494 122.758 41.6798C122.833 41.7499 122.87 41.8283 122.87 41.9148C122.87 41.9616 122.856 42.0154 122.828 42.0762L122.569 42.641H122.653C122.798 42.641 122.915 42.6399 123.004 42.6375C123.004 42.6375 123.07 42.6364 123.204 42.634C123.248 42.6317 123.303 42.6305 123.369 42.6305C123.436 42.6305 123.47 42.6551 123.47 42.7042C123.47 43.0129 123.105 43.1673 122.376 43.1673H122.348L122.109 43.7847C121.84 44.5144 121.706 45.0255 121.706 45.3178C121.706 45.3997 121.725 45.464 121.762 45.5108C121.799 45.5552 121.87 45.5775 121.973 45.5775C122.075 45.5775 122.169 45.5599 122.253 45.5248C122.337 45.4897 122.411 45.4512 122.474 45.4091C122.537 45.3646 122.591 45.3249 122.635 45.2898C122.682 45.2547 122.722 45.2371 122.755 45.2371Z" fill="white" />
    <path d="M125.827 43.1881C125.699 43.1881 125.468 43.3846 125.136 43.7775L124.845 44.1354L124.284 44.8686C124.148 45.1259 124.042 45.3399 123.965 45.5106L123.775 45.9176C123.726 46.0181 123.683 46.0895 123.646 46.1316C123.611 46.1713 123.561 46.1912 123.498 46.1912C123.437 46.1912 123.378 46.1795 123.319 46.1561C123.263 46.1351 123.214 46.107 123.172 46.0719C123.083 45.9971 123.039 45.9152 123.039 45.8263C123.039 45.7913 123.063 45.7223 123.112 45.6194L123.253 45.3352C123.69 44.4347 124.086 43.2934 124.442 41.9111C124.573 41.4012 124.667 40.9428 124.726 40.5359C124.752 40.3394 124.848 40.2412 125.014 40.2412C125.121 40.2412 125.21 40.2669 125.28 40.3184C125.416 40.4189 125.481 40.5265 125.477 40.6411C125.472 40.7557 125.455 40.8844 125.427 41.027C125.399 41.1697 125.363 41.3252 125.319 41.4936C125.274 41.6597 125.224 41.8351 125.168 42.0199C125.014 42.49 124.899 42.8291 124.824 43.0373C124.595 43.6664 124.453 44.0348 124.4 44.1424C124.435 44.1003 124.48 44.043 124.537 43.9705C124.962 43.4115 125.225 43.0782 125.326 42.9706C125.426 42.8607 125.512 42.7765 125.582 42.718C125.729 42.5894 125.916 42.5251 126.143 42.5251C126.328 42.5251 126.476 42.587 126.588 42.711C126.694 42.8303 126.746 42.9613 126.746 43.1039C126.746 43.2443 126.73 43.3717 126.697 43.4863C126.667 43.5986 126.627 43.7132 126.578 43.8301C126.529 43.9471 126.475 44.0675 126.417 44.1915L126.241 44.5599C126.077 44.9317 125.996 45.2077 125.996 45.3878C125.996 45.5141 126.047 45.5773 126.15 45.5773C126.248 45.5773 126.337 45.5562 126.417 45.5141C126.498 45.472 126.551 45.451 126.574 45.451C126.623 45.451 126.648 45.4755 126.648 45.5246C126.648 45.7328 126.543 45.907 126.332 46.0474C126.187 46.1433 126.055 46.1912 125.936 46.1912C125.817 46.1912 125.717 46.1795 125.638 46.1561C125.561 46.1304 125.492 46.0895 125.431 46.0333C125.293 45.907 125.224 45.7211 125.224 45.4755C125.224 45.2112 125.31 44.8791 125.484 44.4792L125.862 43.6723C125.935 43.5226 125.971 43.4045 125.971 43.3179C125.971 43.2314 125.923 43.1881 125.827 43.1881Z" fill="white" />
    <path d="M129.531 44.928C129.541 44.7245 129.574 44.5304 129.633 44.3456C129.691 44.1585 129.77 43.9784 129.868 43.8054C129.966 43.63 130.081 43.4651 130.212 43.3107C130.345 43.154 130.489 43.0172 130.643 42.9002C130.977 42.65 131.315 42.5249 131.657 42.5249C132.057 42.5249 132.323 42.6897 132.456 43.0195C132.503 43.1318 132.525 43.2651 132.523 43.4195C132.521 43.5715 132.492 43.713 132.435 43.844C132.379 43.9726 132.301 44.0907 132.2 44.1983C132.102 44.3035 131.984 44.3983 131.846 44.4825C131.711 44.5667 131.562 44.638 131.401 44.6965C131.069 44.8134 130.713 44.8742 130.334 44.8789C130.325 44.9116 130.319 44.9608 130.317 45.0263C130.315 45.0917 130.322 45.1654 130.338 45.2473C130.354 45.3268 130.382 45.3981 130.422 45.4613C130.506 45.6016 130.628 45.6718 130.787 45.6718C131.058 45.6718 131.322 45.5923 131.58 45.4332C131.671 45.3794 131.744 45.3245 131.801 45.2683C131.859 45.2099 131.909 45.1806 131.951 45.1806C131.993 45.1806 132.03 45.2063 132.06 45.2578C132.093 45.3069 132.109 45.363 132.109 45.4262C132.109 45.5502 132.074 45.6577 132.004 45.749C131.709 46.0437 131.271 46.191 130.689 46.191C130.345 46.191 130.069 46.0881 129.861 45.8823C129.627 45.6484 129.517 45.3303 129.531 44.928ZM131.58 42.9915C131.334 42.9915 131.098 43.1599 130.871 43.4966C130.679 43.7867 130.525 44.1305 130.408 44.5281C130.799 44.4883 131.138 44.334 131.425 44.065C131.689 43.8124 131.822 43.5703 131.822 43.3388C131.822 43.1072 131.741 42.9915 131.58 42.9915Z" fill="white" />
    <path d="M135.592 45.2227C135.592 45.4379 135.668 45.5455 135.82 45.5455C135.925 45.5455 136.012 45.5291 136.08 45.4964C136.15 45.4636 136.197 45.4472 136.22 45.4472C136.269 45.4472 136.294 45.473 136.294 45.5244C136.294 45.7256 136.188 45.8986 135.978 46.0437C135.756 46.1957 135.529 46.2331 135.298 46.1559C135.146 46.1021 135.033 45.9863 134.961 45.8086C134.926 45.7174 134.908 45.6344 134.908 45.5595C134.908 45.4379 134.92 45.3093 134.943 45.1736C134.726 45.618 134.456 45.9244 134.133 46.0928C134.004 46.1583 133.868 46.191 133.723 46.191C133.578 46.191 133.451 46.1618 133.344 46.1033C133.239 46.0425 133.149 45.9595 133.074 45.8542C132.922 45.6344 132.853 45.3584 132.867 45.0263C132.881 44.6099 133.004 44.2018 133.235 43.8019C133.448 43.4277 133.717 43.1224 134.042 42.8862C134.367 42.6453 134.671 42.5249 134.954 42.5249C135.237 42.5249 135.465 42.6547 135.638 42.9143C135.799 42.6547 135.942 42.5249 136.066 42.5249C136.199 42.5249 136.299 42.5494 136.367 42.5985C136.496 42.6921 136.542 42.7739 136.504 42.8441C135.917 44.0463 135.616 44.7947 135.599 45.0894C135.594 45.1315 135.592 45.1759 135.592 45.2227ZM133.645 45.2367C133.645 45.5174 133.736 45.6577 133.916 45.6577C134.054 45.6577 134.223 45.5408 134.424 45.3069C134.719 44.9631 134.98 44.5 135.206 43.9176C135.279 43.7352 135.34 43.5528 135.389 43.3704C135.379 43.2113 135.313 43.0944 135.189 43.0195C135.147 42.9938 135.084 42.9809 134.999 42.9809C134.918 42.9809 134.821 43.0113 134.708 43.0721C134.598 43.133 134.491 43.216 134.386 43.3212C134.283 43.4265 134.186 43.5516 134.094 43.6966C134.006 43.8393 133.927 43.9948 133.859 44.1632C133.717 44.5234 133.645 44.8812 133.645 45.2367Z" fill="white" />
    <path d="M136.609 45.5385C136.609 45.466 136.625 45.3993 136.655 45.3385C136.688 45.2753 136.727 45.2227 136.774 45.1806C136.872 45.0894 136.975 45.0438 137.083 45.0438C137.176 45.0438 137.223 45.0917 137.223 45.1876C137.223 45.4309 137.304 45.6004 137.465 45.6963C137.524 45.7314 137.584 45.749 137.648 45.749C137.711 45.749 137.764 45.7419 137.809 45.7279C137.853 45.7139 137.894 45.6917 137.932 45.6612C138.016 45.5934 138.058 45.5127 138.058 45.4192C138.058 45.3256 138.037 45.2403 137.995 45.1631C137.953 45.0836 137.9 45.0005 137.837 44.914L137.637 44.6333C137.356 44.2591 137.216 43.9141 137.216 43.5984C137.216 43.3364 137.327 43.099 137.549 42.8862C137.802 42.6453 138.126 42.5249 138.521 42.5249C138.867 42.5249 139.137 42.6102 139.331 42.781C139.49 42.919 139.57 43.0768 139.57 43.2546C139.57 43.4393 139.5 43.5867 139.359 43.6966C139.233 43.7949 139.107 43.8311 138.98 43.8054C138.924 43.7937 138.881 43.7656 138.851 43.7212C138.82 43.6744 138.814 43.6218 138.833 43.5633C138.852 43.5048 138.861 43.444 138.861 43.3809C138.861 43.3177 138.849 43.2593 138.826 43.2055C138.803 43.1517 138.771 43.1061 138.731 43.0686C138.65 42.9915 138.563 42.9529 138.472 42.9529C138.383 42.9529 138.309 42.9634 138.251 42.9844C138.192 43.0032 138.141 43.0312 138.097 43.0686C138.005 43.1528 137.96 43.2569 137.96 43.3809C137.96 43.5025 137.981 43.6077 138.023 43.6966C138.065 43.7855 138.116 43.8744 138.177 43.9632C138.24 44.0521 138.308 44.1422 138.381 44.2334C138.453 44.3246 138.52 44.4205 138.581 44.5211C138.728 44.7573 138.802 44.9654 138.802 45.1455C138.802 45.3233 138.764 45.473 138.689 45.5946C138.614 45.7139 138.517 45.8168 138.398 45.9033C138.143 46.0928 137.858 46.1875 137.542 46.1875C137.241 46.1875 137.002 46.115 136.827 45.97C136.682 45.8484 136.609 45.7045 136.609 45.5385Z" fill="white" />
    <path d="M139.857 44.928C139.867 44.7245 139.901 44.5304 139.959 44.3456C140.017 44.1585 140.096 43.9784 140.194 43.8054C140.292 43.63 140.407 43.4651 140.538 43.3107C140.671 43.154 140.815 43.0172 140.969 42.9002C141.304 42.65 141.641 42.5249 141.983 42.5249C142.383 42.5249 142.649 42.6897 142.783 43.0195C142.829 43.1318 142.852 43.2651 142.849 43.4195C142.847 43.5715 142.818 43.713 142.761 43.844C142.705 43.9726 142.627 44.0907 142.526 44.1983C142.428 44.3035 142.31 44.3983 142.172 44.4825C142.037 44.5667 141.888 44.638 141.727 44.6965C141.395 44.8134 141.039 44.8742 140.661 44.8789C140.651 44.9116 140.645 44.9608 140.643 45.0263C140.641 45.0917 140.648 45.1654 140.664 45.2473C140.68 45.3268 140.708 45.3981 140.748 45.4613C140.832 45.6016 140.954 45.6718 141.113 45.6718C141.384 45.6718 141.648 45.5923 141.906 45.4332C141.997 45.3794 142.071 45.3245 142.127 45.2683C142.185 45.2099 142.235 45.1806 142.277 45.1806C142.32 45.1806 142.356 45.2063 142.386 45.2578C142.419 45.3069 142.435 45.363 142.435 45.4262C142.435 45.5502 142.4 45.6577 142.33 45.749C142.035 46.0437 141.597 46.191 141.015 46.191C140.671 46.191 140.395 46.0881 140.187 45.8823C139.953 45.6484 139.843 45.3303 139.857 44.928ZM141.906 42.9915C141.66 42.9915 141.424 43.1599 141.197 43.4966C141.005 43.7867 140.851 44.1305 140.734 44.5281C141.125 44.4883 141.464 44.334 141.751 44.065C142.016 43.8124 142.148 43.5703 142.148 43.3388C142.148 43.1072 142.067 42.9915 141.906 42.9915Z" fill="white" />
</svg>
